# ProBuilder 5.0.6
# https://unity3d.com/unity/features/worldbuilding/probuilder
# 11/29/2022 11:41:05 AM

mtllib ./ThreewayLeft.mtl
o ThreewayLeft

g ThreewayLeft
v 0.25 -2.775557E-18 -0.25
v 0.5 -2.775557E-18 -0.25
v 0.25 0.4 -0.25
v 0.5 0.4 -0.25
v 0.25 2.775557E-18 -0.5
v 0.25 0.4 -0.5
v 0.5 0.4 -0.5
v 0.5 2.775557E-18 0.25
v 0.25 2.775557E-18 0.25
v 0.5 0.4 0.25
v 0.25 0.4 0.25
v 0.25 -2.775559E-18 0.5
v 0.25 0.4 0.5
v 0.5 0.4 0.5
v -0.25 1.110223E-17 -0.5
v -0.25 -1.110223E-17 0.5
v -0.25 0.2 -0.5
v -0.25 0.2 0.5
v 0.5 0.2 0.5
v 0.5 0.2 -0.5
v -0.25 0.4 0.5
v -0.25 0.4 -0.5
v -0.5 1.110223E-17 -0.5
v -0.5 -1.110223E-17 0.5
v -0.5 0.4 -0.5
v -0.5 0.4 0.5

vt -1.5 -4.163337E-18
vt -2.5 -4.163337E-18
vt -1.5 0.2
vt -2.5 0.2
vt -0.2552314 0.4074748
vt -1.255231 0.4074748
vt -0.2552314 0.6074749
vt -1.255231 0.6074749
vt 1.5 1
vt 2.5 1
vt 1.5 0
vt 2.5 0
vt 2.5 0.2
vt 1.5 0.2
vt -0.3089644 0.3313532
vt -1.308964 0.3313532
vt -0.3089644 0.5313532
vt -1.308964 0.5313532
vt -0.06829679 0.3089644
vt -1.068297 0.3089644
vt -0.06829679 0.5089645
vt -1.068297 0.5089645
vt 0.5516573 0.5256231
vt 0.6383883 0.5256231
vt 0.5516573 0.06468555
vt 0.6383883 0.06468555
vt -0.2705491 0.4746409
vt -1.270549 0.4746411
vt -0.2705491 0.674641
vt -1.270549 0.6746413
vt -0.1488962 0.300009
vt -1.148896 0.300009
vt -0.1488962 0.500009
vt -1.148896 0.500009
vt 1.5 0.625
vt 2.5 0.625
vt 1.5 -0.375
vt 2.5 -0.375

vn 0 0 1
vn -1 0 0
vn 0 1 0
vn 0 0 -1
vn 1 0 0

usemtl Road
f 1/1/1 2/2/1 4/4/1 3/3/1
f 5/5/2 1/6/2 3/8/2 6/7/2
f 3/9/3 4/10/3 7/12/3 6/11/3
f 8/12/4 9/11/4 11/14/4 10/13/4
f 9/15/2 12/16/2 13/18/2 11/17/2
f 13/9/3 14/10/3 10/12/3 11/11/3
f 15/19/2 16/20/2 18/22/2 17/21/2
f 18/23/3 19/24/3 20/26/3 17/25/3
f 16/27/5 15/28/5 22/30/5 21/29/5
f 23/31/2 24/32/2 26/34/2 25/33/2
f 26/35/3 21/36/3 22/38/3 25/37/3

