# ProBuilder 5.0.6
# https://unity3d.com/unity/features/worldbuilding/probuilder
# 11/29/2022 10:56:11 AM

mtllib ./TurnLeft.mtl
o TurnLeft

g TurnLeft
v 0.25 0 -0.25
v 0.5 0 -0.25
v 0.25 0.4 -0.25
v 0.5 0.4 -0.25
v 0.25 0 -0.5000001
v 0.25 0.4 -0.5000001
v 0.5 0.4 -0.5000001
v -0.25 0.2 0.25
v 0.5 0.2 0.25
v -0.25 0.2 -0.5000001
v 0.5 0.2 -0.5000001
v -0.5 0 0.25
v -0.25 0 0.25
v -0.5 0.4 0.25
v -0.25 0.4 0.25
v -0.25 0 -0.5000001
v -0.25 0.4 -0.5000001
v -0.5 0 -0.5000001
v -0.5 0.4 -0.5000001
v 0.5 0 0.25
v 0.5 0.4 0.25
v -0.5 0 0.5
v -0.5 0.4 0.5
v 0.5 0 0.5
v 0.5 0.4 0.5

vt -1.944359 0.3631618
vt -2.944359 0.3631618
vt -1.944359 0.5631618
vt -2.944359 0.5631618
vt -2.084037 0.9917113
vt -3.084037 0.9917113
vt -2.084037 1.191711
vt -3.084037 1.191711
vt 1.264231 0.6835876
vt 2.264231 0.6835876
vt 1.264231 -0.3164124
vt 2.264231 -0.3164124
vt 0.3750001 0.9895793
vt 0.6250001 0.9895793
vt 0.3750001 0.9427043
vt 0.6250001 0.9427043
vt -1.87452 -0.2793555
vt -2.87452 -0.2793555
vt -1.87452 -0.07935546
vt -2.87452 -0.07935546
vt 0.04367983 1.201228
vt -0.7141327 1.201228
vt 0.04367983 1.401228
vt -0.7141327 1.401228
vt -0.8409055 0.06983871
vt -1.840906 0.06983871
vt -0.8409055 0.2698387
vt -1.840906 0.2698387
vt 0.81297 -0.9526477
vt 1.81297 -0.9526477
vt 0.81297 -1.952648
vt 1.81297 -1.952648
vt 0.1918799 -0.3212588
vt -0.3315576 -0.3212588
vt 0.1918799 -0.1212587
vt -0.3315576 -0.1212587
vt -1.609133 0.6704527
vt -2.609133 0.6704527
vt -1.609133 0.8704527
vt -2.609133 0.8704527
vt 0.2617188 0
vt -0.2617188 0
vt 0.2617188 0.2
vt -0.2617188 0.2
vt 1.595165 1.882809
vt 2.595165 1.882809
vt 1.595165 0.8828089
vt 2.595165 0.8828089

vn 0 0 1
vn -1 0 0
vn 0 1 0
vn 1 0 0
vn 0 0 -1

usemtl Road
f 1/1/1 2/2/1 4/4/1 3/3/1
f 5/5/2 1/6/2 3/8/2 6/7/2
f 3/9/3 4/10/3 7/12/3 6/11/3
f 8/13/3 9/14/3 11/16/3 10/15/3
f 12/17/1 13/18/1 15/20/1 14/19/1
f 13/21/4 16/22/4 17/24/4 15/23/4
f 18/25/2 12/26/2 14/28/2 19/27/2
f 14/29/3 15/30/3 17/32/3 19/31/3
f 20/33/5 12/34/5 14/36/5 21/35/5
f 12/37/2 22/38/2 23/40/2 14/39/2
f 22/41/1 24/42/1 25/44/1 23/43/1
f 25/45/3 21/46/3 14/48/3 23/47/3

