# ProBuilder 5.0.6
# https://unity3d.com/unity/features/worldbuilding/probuilder
# 17/08/2022 07:10:07 ب.ظ.

mtllib ./Road.mtl
o Road

g Door
v 1.5 0.1244983 1.003148
v 1.5 0.2499983 1.003148
v 1 0.1244988 1.003148
v 1 0.2499988 1.003148
v -0.9999998 0.2500012 1.003148
v -1.5 0.2500018 1.003148
v -0.9999999 0.1245012 1.003148
v -1.5 0.1245017 1.003148
v 1.5 -1.758337E-06 1.003148
v 1 -1.162291E-06 1.003148
v -1 1.162291E-06 1.003148
v -1.5 1.728535E-06 1.003148
v 1.5 0.1244983 0
v 1 0.1244988 0
v 1.5 0.2499983 0
v 1 0.2499988 0
v -0.9999998 0.2500012 0
v -1 0.1245012 0
v -1.5 0.2500018 0
v -1.5 0.1245017 0
v 1.5 -1.743436E-06 0
v 1 -1.162291E-06 0
v -1 1.162291E-06 0
v -1.5 1.743435E-06 0

vt 0.75 1
vt 0.75 0.875
vt 1 1
vt 1 0.875
vt 0.75 0.125
vt 0.75 0.25
vt 1 0.125
vt 1 0.25
vt 0.75 0.75
vt 1 0.75
vt 0.75 0
vt 1 0
vt 0.2824708 0.968875
vt 0.7175294 0.968875
vt 0.2824708 1.031125
vt 0.7175294 1.031125
vt 0.25 0.625
vt 2.980232E-08 0.625
vt 0.25 0.5
vt -2.980232E-08 0.5
vt 0.2499996 0.125
vt 0.2499996 0.25
vt -3.576279E-07 0.125
vt -3.576279E-07 0.25
vt 0.25 0.375
vt 2.980232E-08 0.375
vt 0.2500004 0.125
vt 0.2500004 0
vt 3.576279E-07 0
vt 0.7175293 -0.031125
vt 0.7175293 0.031125
vt 0.2824707 -0.031125
vt 0.2824707 0.031125
vt 0.7174649 1
vt 0.2825351 1
vt 0.7174649 5.960464E-08
vt 0.2825351 5.960464E-08
vt 0 0.6875
vt 0.25 0.6875
vt 0 0.8125
vt 0.25 0.8125
vt 7.450581E-08 0.9375
vt 0.2500001 0.9375
vt 1 0.5
vt 1 0.625
vt 0.75 0.5
vt 0.75 0.625
vt 1 0.375
vt 0.75 0.375

vn 0 0 1
vn 0 0 -1
vn 1.16229E-06 1 -1.38121E-13
vn 1 -1.89975E-06 0
vn -1 0 0

usemtl Road-Unlit
f 1/1/1 2/2/1 4/4/1 3/3/1
f 5/5/1 6/6/1 8/8/1 7/7/1
f 1/9/1 3/10/1 10/4/1 9/2/1
f 11/5/1 7/11/1 8/12/1 12/7/1
f 3/13/1 7/14/1 11/16/1 10/15/1
f 13/17/2 14/18/2 16/20/2 15/19/2
f 17/21/2 18/22/2 20/24/2 19/23/2
f 13/25/2 21/19/2 22/20/2 14/26/2
f 23/27/2 24/23/2 20/29/2 18/28/2
f 14/30/2 22/31/2 23/33/2 18/32/2
f 7/34/3 3/35/3 14/37/3 18/36/3
f 17/38/4 5/39/4 7/41/4 18/40/4
f 4/40/5 16/41/5 14/43/5 3/42/5
f 2/47/3 15/46/3 16/44/3 4/45/3
f 19/49/3 6/48/3 5/44/3 17/46/3
f 24/49/5 12/48/5 6/44/5 19/46/5
f 9/46/4 21/44/4 15/45/4 2/47/4

